<svg width="451" height="96" viewBox="0 0 451 96" fill="none" xmlns="http://www.w3.org/2000/svg">
<g id="logo">
<g id="Component 1">
<path id="Vector" d="M256.847 19.3226C258.891 19.3226 260.548 17.5161 260.548 15.2876C260.548 13.0592 258.891 11.2527 256.847 11.2527C254.803 11.2527 253.147 13.0592 253.147 15.2876C253.147 17.5161 254.803 19.3226 256.847 19.3226Z" fill="#FF6584"/>
<path id="Vector_2" d="M266.955 18.3011C266.971 18.2982 266.982 18.2871 267 18.2899C266.992 18.2588 266.982 18.2284 266.97 18.1989C266.947 18.2301 266.925 18.2619 266.905 18.2898L266.955 18.3011Z" fill="white"/>
<path id="Vector_3" d="M242.239 24.927C242.261 25.8138 242.394 26.6928 242.634 27.5382C242.64 27.5578 242.645 27.5772 242.651 27.5968H244.124C244.123 27.5792 244.121 27.5596 244.12 27.5382C244.022 26.2759 243.455 18.5934 244.132 17.2796C244.073 17.3862 242.125 20.9162 242.239 24.927Z" fill="#E6E6E6"/>
<path id="Vector_4" d="M242.382 27.5373C242.395 27.5572 242.408 27.5771 242.422 27.5968H243.563C243.554 27.5798 243.544 27.5599 243.533 27.5373C243.344 27.1631 242.786 26.0443 242.268 24.8845C241.711 23.6382 241.2 22.3445 241.243 21.8763C241.23 21.9819 240.845 25.201 242.382 27.5373Z" fill="#E6E6E6"/>
<path id="Vector_5" d="M253.996 27.7222C253.977 28.4949 253.857 29.2608 253.641 29.9974C253.636 30.0145 253.631 30.0313 253.626 30.0484H252.3C252.301 30.0331 252.303 30.016 252.304 29.9974C252.392 28.8976 252.902 22.2038 252.293 21.0591C252.346 21.152 254.099 24.2277 253.996 27.7222Z" fill="#E6E6E6"/>
<path id="Vector_6" d="M253.901 29.9974C253.89 30.0145 253.878 30.0316 253.866 30.0484H252.862C252.87 30.0339 252.878 30.0168 252.889 29.9974C253.055 29.6767 253.546 28.7177 254.002 27.7236C254.492 26.6553 254.941 25.5465 254.903 25.1452C254.915 25.2357 255.254 27.9949 253.901 29.9974Z" fill="#E6E6E6"/>
<path id="Vector_7" d="M266.336 23.3842C266.336 23.8282 266.322 24.2685 266.294 24.7052C266.077 28.1507 264.992 31.4613 263.16 34.2652C262.921 34.633 262.669 34.9905 262.406 35.3376C261.724 36.2384 260.966 37.0668 260.143 37.8118L256.537 35.482L254.38 29.9412C254.38 29.9412 257.598 22.7695 266.33 22.8996C266.334 23.0605 266.336 23.2221 266.336 23.3842Z" fill="#3F3D56"/>
<path id="Vector_8" d="M266.336 24.6856C266.17 27.2513 265.523 29.7515 264.434 32.0283C263.346 34.3051 261.84 36.3092 260.011 37.914L256.668 35.7572L254.76 30.8602C254.76 30.8602 257.852 23.9771 266.336 24.6856Z" fill="#F8FF63"/>
<path id="Vector_9" d="M263.205 34.2203C262.966 34.5872 262.715 34.9438 262.452 35.2901C260.69 37.6181 258.439 39.4387 255.894 40.5944C255.379 40.8282 254.851 41.0343 254.312 41.2128C250.415 42.3525 246.287 42.0643 242.553 40.3916C238.86 38.5785 235.875 35.3765 234.136 31.3607C233.902 30.8201 233.692 30.2657 233.505 29.6977C236.761 27.0741 243.177 23.3173 250.169 26.9678C252.104 27.9776 253.831 28.898 255.351 29.7291C259.208 31.8321 261.775 33.3482 263.205 34.2203Z" fill="#3F3D56"/>
<path id="Vector_10" d="M262.445 35.311C260.621 37.7079 258.276 39.5633 255.626 40.7066C252.976 41.8499 250.107 42.2443 247.281 41.8536C244.456 41.4629 241.766 40.2995 239.458 38.4706C237.15 36.6417 235.299 34.2059 234.074 31.3874C236.799 29.0256 243.083 24.7813 249.979 28.3688C251.753 29.2915 253.336 30.1326 254.729 30.8921C258.791 33.0987 261.292 34.5983 262.445 35.311Z" fill="#F8FF63"/>
<path id="Vector_11" d="M257.606 39.6741C257.037 40.0203 256.45 40.3305 255.849 40.6032C253.801 41.5284 251.608 42.003 249.394 42C246.774 41.9989 244.19 41.3316 241.845 40.0507C239.499 38.7697 237.457 36.91 235.877 34.6174C239.922 34.1498 251.101 33.5192 257.606 39.6741Z" fill="#3F3D56"/>
<path id="Vector_12" d="M255.898 40.5981C252.724 42.0348 249.229 42.377 245.874 41.5795C242.519 40.782 239.463 38.8823 237.111 36.1316C238.582 35.8938 250.13 34.2603 255.898 40.5981Z" fill="#F8FF63"/>
<path id="Vector_13" d="M263.489 12.9887V12.9893C251.422 3.18364 237.597 10.0853 237.49 10.1383V10.1378C239.057 8.41572 240.918 7.05035 242.966 6.11984C245.014 5.18933 247.209 4.71196 249.425 4.71507C255.291 4.71507 260.459 8.0007 263.489 12.9887Z" fill="#E6E6E6"/>
<path id="Vector_14" d="M238.427 23.7236C240.471 23.3177 241.519 19.2649 240.767 14.6713C240.015 10.0777 237.747 6.6829 235.702 7.0888C233.658 7.49471 232.61 11.5476 233.362 16.1412C234.114 20.7348 236.382 24.1296 238.427 23.7236Z" fill="#3F3D56"/>
<path id="Vector_15" d="M238.914 29.1246C238.795 19.0051 235.801 9.50864 235.771 9.41397L235.498 9.52535C235.528 9.61956 238.506 19.0663 238.623 29.129L238.914 29.1246Z" fill="#F8FF63"/>
<path id="Vector_16" d="M233.512 14.2648L233.421 14.5763L237.091 15.8833L237.183 15.5719L233.512 14.2648Z" fill="#F8FF63"/>
<path id="Vector_17" d="M240.417 13.9139L237.393 16.5512L237.577 16.8078L240.602 14.1705L240.417 13.9139Z" fill="#F8FF63"/>
<path id="Vector_18" d="M248.26 22.2849C250.487 22.2849 252.293 18.1917 252.293 13.1425C252.293 8.09322 250.487 4 248.26 4C246.033 4 244.227 8.09322 244.227 13.1425C244.227 18.1917 246.033 22.2849 248.26 22.2849Z" fill="#3F3D56"/>
<path id="Vector_19" d="M247.865 28.1075C249.493 17.3137 247.881 6.55889 247.865 6.4516L247.548 6.51088C247.565 6.61764 249.167 17.316 247.548 28.0493L247.865 28.1075Z" fill="#F8FF63"/>
<path id="Vector_20" d="M244.675 11.1572L244.523 11.4695L248.204 13.6374L248.356 13.3251L244.675 11.1572Z" fill="#F8FF63"/>
<path id="Vector_21" d="M252.09 12.2431L248.409 14.4123L248.561 14.7246L252.241 12.5555L252.09 12.2431Z" fill="#F8FF63"/>
<path id="Vector_22" d="M265.956 19.2895C264.461 18.3767 262.898 17.6 261.284 16.9674C252.362 13.4577 243.515 14.8104 240.052 19.8333C242.747 13.6798 252.363 11.7449 262.067 15.5622C263.197 16.0061 264.302 16.5194 265.378 17.0997C265.612 17.8159 265.806 18.5472 265.956 19.2895V19.2895Z" fill="#E6E6E6"/>
</g>
<path id="sub" d="M126.903 33H126.543V28.806H126.903C126.903 29.934 127.305 30.894 128.109 31.686C128.925 32.478 129.915 32.874 131.079 32.874C131.559 32.874 131.943 32.736 132.231 32.46C132.531 32.172 132.681 31.794 132.681 31.326C132.681 30.798 132.339 30.348 131.655 29.976C131.283 29.784 130.641 29.484 129.729 29.076C128.817 28.656 128.175 28.302 127.803 28.014C127.059 27.438 126.729 26.676 126.813 25.728C126.909 24.78 127.269 24.048 127.893 23.532C128.517 23.004 129.219 22.74 129.999 22.74C130.791 22.74 131.499 22.848 132.123 23.064C132.759 23.268 133.119 23.37 133.203 23.37C133.443 23.37 133.563 23.16 133.563 22.74H133.923V26.034H133.563C133.563 25.17 133.245 24.468 132.609 23.928C131.973 23.376 131.157 23.1 130.161 23.1C129.717 23.1 129.369 23.232 129.117 23.496C128.865 23.748 128.739 24.03 128.739 24.342C128.739 24.654 128.781 24.894 128.865 25.062C128.949 25.23 129.093 25.386 129.297 25.53C129.513 25.662 129.699 25.77 129.855 25.854C130.011 25.938 130.257 26.052 130.593 26.196C130.941 26.34 131.181 26.442 131.313 26.502C131.973 26.802 132.363 26.982 132.483 27.042C132.603 27.09 132.777 27.174 133.005 27.294C133.233 27.414 133.401 27.522 133.509 27.618C133.629 27.714 133.779 27.834 133.959 27.978C134.139 28.122 134.271 28.272 134.355 28.428C134.439 28.572 134.523 28.74 134.607 28.932C134.775 29.316 134.835 29.766 134.787 30.282C134.691 31.254 134.325 31.998 133.689 32.514C133.065 33.018 132.219 33.27 131.151 33.27C130.191 33.27 129.237 33.024 128.289 32.532C127.965 32.364 127.725 32.28 127.569 32.28C127.125 32.28 126.903 32.52 126.903 33ZM142.43 33V32.046C142.202 32.37 141.842 32.646 141.35 32.874C140.87 33.09 140.348 33.198 139.784 33.198C137.648 33.198 136.58 32.04 136.58 29.724V25.08H135.68V24.72H139.28V30.12C139.28 30.972 139.406 31.578 139.658 31.938C139.91 32.298 140.288 32.478 140.792 32.478C141.464 32.478 142.01 32.118 142.43 31.398V25.08H141.53V24.72H145.13V32.64H146.03V33H142.43ZM150.354 30.192C150.354 31.104 150.456 31.764 150.66 32.172C150.864 32.568 151.188 32.766 151.632 32.766C152.088 32.766 152.49 32.43 152.838 31.758C153.186 31.074 153.36 30.12 153.36 28.896C153.36 27.66 153.174 26.712 152.802 26.052C152.442 25.392 152.016 25.062 151.524 25.062C151.032 25.062 150.642 25.344 150.354 25.908V30.192ZM154.584 32.37C154.14 32.658 153.708 32.862 153.288 32.982C152.868 33.102 152.454 33.162 152.046 33.162C151.65 33.162 151.284 33.09 150.948 32.946C150.612 32.79 150.342 32.628 150.138 32.46C149.946 32.28 149.73 32.118 149.49 31.974C149.25 31.818 149.022 31.74 148.806 31.74C148.59 31.74 148.398 31.86 148.23 32.1C148.074 32.34 147.996 32.64 147.996 33H147.654V21.3H146.754V20.94H150.354V25.368C150.546 25.044 150.858 24.792 151.29 24.612C151.734 24.42 152.196 24.324 152.676 24.324C153.588 24.324 154.38 24.726 155.052 25.53C155.736 26.322 156.078 27.432 156.078 28.86C156.078 29.7 155.94 30.42 155.664 31.02C155.388 31.62 155.028 32.07 154.584 32.37ZM157.331 29.436V28.068H160.409V29.436H157.331ZM165.251 33.216C164.279 33.216 163.439 32.832 162.731 32.064C162.023 31.296 161.669 30.21 161.669 28.806C161.669 27.402 162.017 26.304 162.713 25.512C163.409 24.72 164.255 24.324 165.251 24.324C165.743 24.324 166.205 24.426 166.637 24.63C167.069 24.834 167.381 25.14 167.573 25.548V21.3H166.673V20.94H170.273V32.64H171.173V33H167.573V32.172C167.249 32.868 166.475 33.216 165.251 33.216ZM167.573 29.058V26.088C167.249 25.44 166.823 25.116 166.295 25.116C165.779 25.116 165.335 25.416 164.963 26.016C164.591 26.616 164.405 27.57 164.405 28.878C164.405 30.174 164.597 31.122 164.981 31.722C165.365 32.322 165.827 32.58 166.367 32.496C166.667 32.448 166.895 32.352 167.051 32.208C167.399 31.872 167.573 30.822 167.573 29.058ZM176.031 32.64H176.931V33H172.431V32.64H173.331V25.08H172.611V24.72H176.031V32.64ZM176.193 22.344C176.193 22.776 176.037 23.148 175.725 23.46C175.425 23.76 175.053 23.91 174.609 23.91C174.177 23.91 173.805 23.76 173.493 23.46C173.181 23.148 173.025 22.776 173.025 22.344C173.025 21.9 173.181 21.522 173.493 21.21C173.805 20.898 174.177 20.742 174.609 20.742C175.053 20.742 175.425 20.898 175.725 21.21C176.037 21.522 176.193 21.9 176.193 22.344ZM182.247 32.856C183.495 32.856 184.119 32.514 184.119 31.83C184.119 31.446 183.903 31.134 183.471 30.894C183.039 30.642 182.517 30.438 181.905 30.282C181.293 30.126 180.687 29.946 180.087 29.742C179.499 29.538 179.007 29.214 178.611 28.77C178.227 28.326 178.071 27.744 178.143 27.024C178.215 26.304 178.581 25.71 179.241 25.242C179.913 24.774 180.735 24.54 181.707 24.54C182.691 24.54 183.483 24.696 184.083 25.008C184.683 25.32 185.019 25.74 185.091 26.268C185.139 26.592 185.085 26.892 184.929 27.168C184.785 27.444 184.539 27.588 184.191 27.6C183.855 27.612 183.573 27.522 183.345 27.33C183.129 27.138 183.027 26.916 183.039 26.664C183.051 26.412 183.147 26.19 183.327 25.998C183.507 25.794 183.597 25.632 183.597 25.512C183.597 25.308 183.399 25.158 183.003 25.062C182.619 24.954 182.169 24.9 181.653 24.9C181.149 24.9 180.735 25.014 180.411 25.242C180.087 25.47 179.925 25.752 179.925 26.088C179.925 26.424 180.123 26.712 180.519 26.952C180.927 27.192 181.419 27.39 181.995 27.546C182.571 27.69 183.141 27.858 183.705 28.05C184.281 28.23 184.767 28.524 185.163 28.932C185.571 29.34 185.775 29.856 185.775 30.48C185.775 31.308 185.481 31.974 184.893 32.478C184.305 32.97 183.417 33.216 182.229 33.216C181.041 33.216 180.075 33.036 179.331 32.676C178.599 32.316 178.197 31.854 178.125 31.29C178.077 30.966 178.131 30.666 178.287 30.39C178.443 30.114 178.689 29.97 179.025 29.958C179.361 29.946 179.637 30.036 179.853 30.228C180.081 30.42 180.189 30.642 180.177 30.894C180.165 31.146 180.069 31.374 179.889 31.578C179.709 31.77 179.619 31.926 179.619 32.046C179.619 32.286 179.895 32.484 180.447 32.64C181.011 32.784 181.611 32.856 182.247 32.856ZM186.56 28.86C186.56 27.444 186.974 26.37 187.802 25.638C188.63 24.906 189.68 24.54 190.952 24.54C192.236 24.54 193.19 24.864 193.814 25.512C194.438 26.148 194.66 26.808 194.48 27.492C194.384 27.864 194.18 28.14 193.868 28.32C193.568 28.488 193.238 28.53 192.878 28.446C192.122 28.266 191.744 27.828 191.744 27.132C191.744 26.952 191.762 26.682 191.798 26.322C191.846 25.95 191.864 25.68 191.852 25.512C191.84 25.344 191.804 25.212 191.744 25.116C191.624 24.912 191.342 24.834 190.898 24.882C189.818 25.05 189.278 26.376 189.278 28.86C189.278 31.332 190.16 32.568 191.924 32.568C192.332 32.568 192.746 32.46 193.166 32.244C193.586 32.028 193.898 31.77 194.102 31.47L194.354 31.65C194.078 32.106 193.664 32.472 193.112 32.748C192.56 33.024 191.942 33.162 191.258 33.162C188.126 33.162 186.56 31.728 186.56 28.86ZM198.762 31.92C199.026 32.52 199.482 32.82 200.13 32.82C200.778 32.82 201.24 32.514 201.516 31.902C201.792 31.29 201.93 30.282 201.93 28.878C201.93 27.462 201.792 26.448 201.516 25.836C201.24 25.212 200.778 24.9 200.13 24.9C199.482 24.9 199.026 25.212 198.762 25.836C198.498 26.448 198.366 27.462 198.366 28.878C198.366 30.294 198.498 31.308 198.762 31.92ZM200.094 33.18C198.954 33.18 197.922 32.808 196.998 32.064C196.074 31.32 195.612 30.264 195.612 28.896C195.612 28.164 195.744 27.51 196.008 26.934C196.284 26.358 196.644 25.902 197.088 25.566C197.544 25.23 198.03 24.978 198.546 24.81C199.062 24.63 199.59 24.54 200.13 24.54C200.67 24.54 201.198 24.63 201.714 24.81C202.242 24.978 202.728 25.23 203.172 25.566C203.628 25.902 203.994 26.358 204.27 26.934C204.546 27.51 204.684 28.158 204.684 28.878C204.684 29.598 204.546 30.24 204.27 30.804C203.994 31.368 203.628 31.818 203.172 32.154C202.26 32.838 201.234 33.18 200.094 33.18ZM221.072 32.64H221.972V33H217.472V32.64H218.372V27.6C218.372 26.748 218.246 26.142 217.994 25.782C217.742 25.422 217.364 25.242 216.86 25.242C216.572 25.242 216.272 25.326 215.96 25.494C215.648 25.662 215.39 25.896 215.186 26.196C215.33 26.628 215.402 27.228 215.402 27.996V32.64H216.302V33H211.622V32.64H212.702V27.6C212.702 26.748 212.576 26.142 212.324 25.782C212.072 25.422 211.694 25.242 211.19 25.242C210.506 25.242 209.96 25.602 209.552 26.322V32.64H210.452V33H205.952V32.64H206.852V25.08H205.952V24.72H209.552V25.656C209.78 25.344 210.134 25.08 210.614 24.864C211.106 24.636 211.634 24.522 212.198 24.522C213.626 24.522 214.556 24.924 214.988 25.728C215.3 25.344 215.714 25.05 216.23 24.846C216.746 24.63 217.292 24.522 217.868 24.522C220.004 24.522 221.072 25.68 221.072 27.996V32.64ZM226.292 30.192C226.292 31.104 226.394 31.764 226.598 32.172C226.802 32.568 227.126 32.766 227.57 32.766C228.026 32.766 228.428 32.43 228.776 31.758C229.124 31.074 229.298 30.12 229.298 28.896C229.298 27.66 229.112 26.712 228.74 26.052C228.38 25.392 227.954 25.062 227.462 25.062C226.97 25.062 226.58 25.344 226.292 25.908V30.192ZM230.522 32.37C230.078 32.658 229.646 32.862 229.226 32.982C228.806 33.102 228.392 33.162 227.984 33.162C227.588 33.162 227.222 33.09 226.886 32.946C226.55 32.79 226.28 32.628 226.076 32.46C225.884 32.28 225.668 32.118 225.428 31.974C225.188 31.818 224.96 31.74 224.744 31.74C224.528 31.74 224.336 31.86 224.168 32.1C224.012 32.34 223.934 32.64 223.934 33H223.592V21.3H222.692V20.94H226.292V25.368C226.484 25.044 226.796 24.792 227.228 24.612C227.672 24.42 228.134 24.324 228.614 24.324C229.526 24.324 230.318 24.726 230.99 25.53C231.674 26.322 232.016 27.432 232.016 28.86C232.016 29.7 231.878 30.42 231.602 31.02C231.326 31.62 230.966 32.07 230.522 32.37ZM271.134 30.192C271.134 31.104 271.236 31.764 271.44 32.172C271.644 32.568 271.968 32.766 272.412 32.766C272.868 32.766 273.27 32.43 273.618 31.758C273.966 31.074 274.14 30.12 274.14 28.896C274.14 27.66 273.954 26.712 273.582 26.052C273.222 25.392 272.796 25.062 272.304 25.062C271.812 25.062 271.422 25.344 271.134 25.908V30.192ZM275.364 32.37C274.92 32.658 274.488 32.862 274.068 32.982C273.648 33.102 273.234 33.162 272.826 33.162C272.43 33.162 272.064 33.09 271.728 32.946C271.392 32.79 271.122 32.628 270.918 32.46C270.726 32.28 270.51 32.118 270.27 31.974C270.03 31.818 269.802 31.74 269.586 31.74C269.37 31.74 269.178 31.86 269.01 32.1C268.854 32.34 268.776 32.64 268.776 33H268.434V21.3H267.534V20.94H271.134V25.368C271.326 25.044 271.638 24.792 272.07 24.612C272.514 24.42 272.976 24.324 273.456 24.324C274.368 24.324 275.16 24.726 275.832 25.53C276.516 26.322 276.858 27.432 276.858 28.86C276.858 29.7 276.72 30.42 276.444 31.02C276.168 31.62 275.808 32.07 275.364 32.37ZM284.321 33V32.046C284.093 32.37 283.733 32.646 283.241 32.874C282.761 33.09 282.239 33.198 281.675 33.198C279.539 33.198 278.471 32.04 278.471 29.724V25.08H277.571V24.72H281.171V30.12C281.171 30.972 281.297 31.578 281.549 31.938C281.801 32.298 282.179 32.478 282.683 32.478C283.355 32.478 283.901 32.118 284.321 31.398V25.08H283.421V24.72H287.021V32.64H287.921V33H284.321ZM292.785 32.64H293.685V33H289.185V32.64H290.085V21.3H289.185V20.94H292.785V32.64ZM303.68 32.64C303.56 32.76 303.332 32.868 302.996 32.964C302.66 33.048 302.27 33.09 301.826 33.09C300.842 33.09 300.224 32.796 299.972 32.208C299.372 32.832 298.454 33.144 297.218 33.144C296.558 33.144 296.012 32.994 295.58 32.694C295.16 32.382 294.95 31.926 294.95 31.326C294.95 30.522 295.262 29.904 295.886 29.472C296.51 29.028 297.602 28.716 299.162 28.536L299.882 28.446V27.564C299.882 26.52 299.804 25.818 299.648 25.458C299.492 25.098 299.18 24.918 298.712 24.918C298.256 24.918 297.962 24.984 297.83 25.116C297.698 25.236 297.65 25.38 297.686 25.548C297.722 25.704 297.782 25.914 297.866 26.178C297.95 26.442 297.992 26.652 297.992 26.808C297.992 27.18 297.86 27.498 297.596 27.762C297.344 28.014 297.032 28.14 296.66 28.14C296.3 28.14 295.988 28.014 295.724 27.762C295.46 27.498 295.328 27.18 295.328 26.808C295.328 26.196 295.64 25.674 296.264 25.242C296.9 24.798 297.842 24.576 299.09 24.576C300.35 24.576 301.244 24.822 301.772 25.314C302.312 25.806 302.582 26.676 302.582 27.924V31.164C302.582 31.8 302.66 32.202 302.816 32.37C302.972 32.526 303.26 32.556 303.68 32.46V32.64ZM297.452 30.966C297.512 31.422 297.68 31.776 297.956 32.028C298.232 32.268 298.55 32.388 298.91 32.388C299.282 32.388 299.606 32.208 299.882 31.848V28.788L299.234 28.878C298.682 28.95 298.232 29.16 297.884 29.508C297.548 29.856 297.404 30.342 297.452 30.966ZM308.071 25.08V29.472C308.071 30.504 308.113 31.134 308.197 31.362C308.281 31.578 308.371 31.764 308.467 31.92C308.647 32.232 308.959 32.388 309.403 32.388C309.859 32.388 310.177 32.328 310.357 32.208V32.568C309.781 32.976 309.151 33.18 308.467 33.18C307.459 33.18 306.691 32.94 306.163 32.46C305.635 31.98 305.371 31.122 305.371 29.886V25.08H304.039V24.72H305.371C305.947 24.624 306.457 24.348 306.901 23.892C307.345 23.424 307.651 22.782 307.819 21.966H308.071V24.72H310.159V25.08H308.071ZM314.233 31.92C314.497 32.52 314.953 32.82 315.601 32.82C316.249 32.82 316.711 32.514 316.987 31.902C317.263 31.29 317.401 30.282 317.401 28.878C317.401 27.462 317.263 26.448 316.987 25.836C316.711 25.212 316.249 24.9 315.601 24.9C314.953 24.9 314.497 25.212 314.233 25.836C313.969 26.448 313.837 27.462 313.837 28.878C313.837 30.294 313.969 31.308 314.233 31.92ZM315.565 33.18C314.425 33.18 313.393 32.808 312.469 32.064C311.545 31.32 311.083 30.264 311.083 28.896C311.083 28.164 311.215 27.51 311.479 26.934C311.755 26.358 312.115 25.902 312.559 25.566C313.015 25.23 313.501 24.978 314.017 24.81C314.533 24.63 315.061 24.54 315.601 24.54C316.141 24.54 316.669 24.63 317.185 24.81C317.713 24.978 318.199 25.23 318.643 25.566C319.099 25.902 319.465 26.358 319.741 26.934C320.017 27.51 320.155 28.158 320.155 28.878C320.155 29.598 320.017 30.24 319.741 30.804C319.465 31.368 319.099 31.818 318.643 32.154C317.731 32.838 316.705 33.18 315.565 33.18ZM325.923 33H321.423V32.64H322.323V25.08H321.423V24.72H325.023V26.862C325.131 26.274 325.323 25.794 325.599 25.422C325.887 25.05 326.199 24.804 326.535 24.684C326.883 24.564 327.213 24.504 327.525 24.504C327.849 24.504 328.155 24.564 328.443 24.684C328.743 24.792 328.965 25.02 329.109 25.368C329.253 25.704 329.259 26.046 329.127 26.394C328.995 26.73 328.761 26.97 328.425 27.114C328.101 27.258 327.801 27.276 327.525 27.168C327.249 27.06 327.051 26.916 326.931 26.736C326.811 26.544 326.727 26.364 326.679 26.196C326.559 25.752 326.397 25.53 326.193 25.53C325.965 25.53 325.713 25.926 325.437 26.718C325.161 27.498 325.023 28.326 325.023 29.202V32.64H325.923V33Z" fill="black"/>
<path id="atomique" d="M150.256 11.76V12H147.1V11.76H147.808L147.004 10.092H144.58L143.884 11.76H144.832V12H142.78V11.76H143.584L146.332 5.16H146.632L149.68 11.76H150.256ZM144.688 9.84H146.884L145.708 7.392L144.688 9.84ZM153.059 6.72V9.648C153.059 10.336 153.087 10.756 153.143 10.908C153.199 11.052 153.259 11.176 153.323 11.28C153.443 11.488 153.651 11.592 153.947 11.592C154.251 11.592 154.463 11.552 154.583 11.472V11.712C154.199 11.984 153.779 12.12 153.323 12.12C152.651 12.12 152.139 11.96 151.787 11.64C151.435 11.32 151.259 10.748 151.259 9.924V6.72H150.371V6.48H151.259C151.643 6.416 151.983 6.232 152.279 5.928C152.575 5.616 152.779 5.188 152.891 4.644H153.059V6.48H154.451V6.72H153.059ZM157.167 11.28C157.343 11.68 157.647 11.88 158.079 11.88C158.511 11.88 158.819 11.676 159.003 11.268C159.187 10.86 159.279 10.188 159.279 9.252C159.279 8.308 159.187 7.632 159.003 7.224C158.819 6.808 158.511 6.6 158.079 6.6C157.647 6.6 157.343 6.808 157.167 7.224C156.991 7.632 156.903 8.308 156.903 9.252C156.903 10.196 156.991 10.872 157.167 11.28ZM158.055 12.12C157.295 12.12 156.607 11.872 155.991 11.376C155.375 10.88 155.067 10.176 155.067 9.264C155.067 8.776 155.155 8.34 155.331 7.956C155.515 7.572 155.755 7.268 156.051 7.044C156.355 6.82 156.679 6.652 157.023 6.54C157.367 6.42 157.719 6.36 158.079 6.36C158.439 6.36 158.791 6.42 159.135 6.54C159.487 6.652 159.811 6.82 160.107 7.044C160.411 7.268 160.655 7.572 160.839 7.956C161.023 8.34 161.115 8.772 161.115 9.252C161.115 9.732 161.023 10.16 160.839 10.536C160.655 10.912 160.411 11.212 160.107 11.436C159.499 11.892 158.815 12.12 158.055 12.12ZM172.04 11.76H172.64V12H169.64V11.76H170.24V8.4C170.24 7.832 170.156 7.428 169.988 7.188C169.82 6.948 169.568 6.828 169.232 6.828C169.04 6.828 168.84 6.884 168.632 6.996C168.424 7.108 168.252 7.264 168.116 7.464C168.212 7.752 168.26 8.152 168.26 8.664V11.76H168.86V12H165.74V11.76H166.46V8.4C166.46 7.832 166.376 7.428 166.208 7.188C166.04 6.948 165.788 6.828 165.452 6.828C164.996 6.828 164.632 7.068 164.36 7.548V11.76H164.96V12H161.96V11.76H162.56V6.72H161.96V6.48H164.36V7.104C164.512 6.896 164.748 6.72 165.068 6.576C165.396 6.424 165.748 6.348 166.124 6.348C167.076 6.348 167.696 6.616 167.984 7.152C168.192 6.896 168.468 6.7 168.812 6.564C169.156 6.42 169.52 6.348 169.904 6.348C171.328 6.348 172.04 7.12 172.04 8.664V11.76ZM175.88 11.76H176.48V12H173.48V11.76H174.08V6.72H173.6V6.48H175.88V11.76ZM175.988 4.896C175.988 5.184 175.884 5.432 175.676 5.64C175.476 5.84 175.228 5.94 174.932 5.94C174.644 5.94 174.396 5.84 174.188 5.64C173.98 5.432 173.876 5.184 173.876 4.896C173.876 4.6 173.98 4.348 174.188 4.14C174.396 3.932 174.644 3.828 174.932 3.828C175.228 3.828 175.476 3.932 175.676 4.14C175.884 4.348 175.988 4.6 175.988 4.896ZM181.14 6.48H183.54V6.72H182.94V14.28H183.54V14.52H180.54V14.28H181.14V11.448C181.012 11.72 180.804 11.924 180.516 12.06C180.228 12.196 179.92 12.264 179.592 12.264C178.928 12.264 178.364 12 177.9 11.472C177.436 10.944 177.204 10.212 177.204 9.276C177.204 8.34 177.44 7.616 177.912 7.104C178.384 6.592 178.972 6.336 179.676 6.336C180.38 6.336 180.868 6.568 181.14 7.032V6.48ZM181.14 9.108C181.14 8.22 181.08 7.616 180.96 7.296C180.84 6.976 180.584 6.816 180.192 6.816C179.8 6.816 179.508 6.996 179.316 7.356C179.124 7.708 179.028 8.328 179.028 9.216C179.028 10.096 179.152 10.736 179.4 11.136C179.648 11.536 179.944 11.736 180.288 11.736C180.64 11.736 180.924 11.52 181.14 11.088V9.108ZM188.401 12V11.364C188.249 11.58 188.009 11.764 187.681 11.916C187.361 12.06 187.013 12.132 186.637 12.132C185.213 12.132 184.501 11.36 184.501 9.816V6.72H183.901V6.48H186.301V10.08C186.301 10.648 186.385 11.052 186.553 11.292C186.721 11.532 186.973 11.652 187.309 11.652C187.757 11.652 188.121 11.412 188.401 10.932V6.72H187.801V6.48H190.201V11.76H190.801V12H188.401ZM196.948 9.6H193.324C193.404 11.008 193.952 11.712 194.968 11.712C195.24 11.712 195.548 11.648 195.892 11.52C196.244 11.392 196.5 11.212 196.66 10.98L196.828 11.1C196.652 11.396 196.352 11.64 195.928 11.832C195.504 12.024 195.08 12.12 194.656 12.12C194.24 12.12 193.864 12.08 193.528 12C193.192 11.912 192.864 11.768 192.544 11.568C192.224 11.368 191.972 11.068 191.788 10.668C191.612 10.268 191.524 9.784 191.524 9.216C191.524 8.248 191.792 7.532 192.328 7.068C192.864 6.596 193.512 6.36 194.272 6.36C195.04 6.36 195.676 6.616 196.18 7.128C196.692 7.64 196.948 8.464 196.948 9.6ZM193.312 9.36H195.268C195.268 8.624 195.188 7.98 195.028 7.428C194.876 6.876 194.628 6.6 194.284 6.6C193.94 6.6 193.692 6.868 193.54 7.404C193.388 7.932 193.312 8.54 193.312 9.228V9.36Z" fill="black"/>
</g>
</svg>
