<svg width="451" height="128" viewBox="0 0 451 128" fill="none" xmlns="http://www.w3.org/2000/svg">
<g id="logo">
<rect id="Rectangle 1" x="101" width="340" height="95" fill="#42A5F5"/>
<g id="Component 1">
<path id="Vector" d="M255.847 52.3226C257.891 52.3226 259.548 50.5161 259.548 48.2876C259.548 46.0592 257.891 44.2527 255.847 44.2527C253.803 44.2527 252.147 46.0592 252.147 48.2876C252.147 50.5161 253.803 52.3226 255.847 52.3226Z" fill="#FF6584"/>
<path id="Vector_2" d="M265.955 51.3011C265.971 51.2982 265.982 51.2871 266 51.2899C265.992 51.2588 265.982 51.2284 265.97 51.1989C265.947 51.2301 265.925 51.2619 265.905 51.2898L265.955 51.3011Z" fill="white"/>
<path id="Vector_3" d="M241.239 57.927C241.261 58.8138 241.394 59.6928 241.634 60.5382C241.64 60.5578 241.645 60.5772 241.651 60.5968H243.124C243.123 60.5792 243.121 60.5596 243.12 60.5382C243.022 59.2759 242.455 51.5934 243.132 50.2796C243.073 50.3862 241.125 53.9162 241.239 57.927Z" fill="#E6E6E6"/>
<path id="Vector_4" d="M241.382 60.5373C241.395 60.5572 241.408 60.5771 241.422 60.5968H242.563C242.554 60.5798 242.544 60.5599 242.533 60.5373C242.344 60.1631 241.786 59.0443 241.268 57.8845C240.711 56.6382 240.2 55.3445 240.243 54.8763C240.23 54.9819 239.845 58.201 241.382 60.5373Z" fill="#E6E6E6"/>
<path id="Vector_5" d="M252.996 60.7222C252.977 61.4949 252.857 62.2608 252.641 62.9974C252.636 63.0145 252.631 63.0313 252.626 63.0484H251.3C251.301 63.0331 251.303 63.016 251.304 62.9974C251.392 61.8976 251.902 55.2038 251.293 54.0591C251.346 54.152 253.099 57.2277 252.996 60.7222Z" fill="#E6E6E6"/>
<path id="Vector_6" d="M252.901 62.9974C252.89 63.0145 252.878 63.0316 252.866 63.0484H251.862C251.87 63.0339 251.878 63.0168 251.889 62.9974C252.055 62.6767 252.546 61.7177 253.002 60.7236C253.492 59.6553 253.941 58.5465 253.903 58.1452C253.915 58.2357 254.254 60.9949 252.901 62.9974Z" fill="#E6E6E6"/>
<path id="Vector_7" d="M265.336 56.3842C265.336 56.8282 265.322 57.2685 265.294 57.7052C265.077 61.1507 263.992 64.4613 262.16 67.2652C261.921 67.633 261.669 67.9905 261.406 68.3376C260.724 69.2384 259.966 70.0668 259.143 70.8118L255.537 68.482L253.38 62.9412C253.38 62.9412 256.598 55.7695 265.33 55.8996C265.334 56.0605 265.336 56.2221 265.336 56.3842Z" fill="#3F3D56"/>
<path id="Vector_8" d="M265.336 57.6856C265.17 60.2513 264.523 62.7515 263.434 65.0283C262.346 67.3051 260.84 69.3092 259.011 70.914L255.668 68.7572L253.76 63.8602C253.76 63.8602 256.852 56.9771 265.336 57.6856Z" fill="#F8FF63"/>
<path id="Vector_9" d="M262.205 67.2203C261.966 67.5872 261.715 67.9438 261.452 68.2901C259.69 70.6181 257.439 72.4387 254.894 73.5944C254.379 73.8282 253.851 74.0343 253.312 74.2128C249.415 75.3525 245.287 75.0643 241.553 73.3916C237.86 71.5785 234.875 68.3765 233.136 64.3607C232.902 63.8201 232.692 63.2657 232.505 62.6977C235.761 60.0741 242.177 56.3173 249.169 59.9678C251.104 60.9776 252.831 61.898 254.351 62.7291C258.208 64.8321 260.775 66.3482 262.205 67.2203Z" fill="#3F3D56"/>
<path id="Vector_10" d="M261.445 68.311C259.621 70.7079 257.276 72.5633 254.626 73.7066C251.976 74.8499 249.107 75.2443 246.281 74.8536C243.456 74.4629 240.766 73.2995 238.458 71.4706C236.15 69.6417 234.299 67.2059 233.074 64.3874C235.799 62.0256 242.083 57.7813 248.979 61.3688C250.753 62.2915 252.336 63.1326 253.729 63.8921C257.791 66.0987 260.292 67.5983 261.445 68.311Z" fill="#F8FF63"/>
<path id="Vector_11" d="M256.606 72.6741C256.037 73.0203 255.45 73.3305 254.849 73.6032C252.801 74.5284 250.608 75.003 248.394 75C245.774 74.9989 243.19 74.3316 240.845 73.0507C238.499 71.7697 236.457 69.91 234.877 67.6174C238.922 67.1498 250.101 66.5192 256.606 72.6741Z" fill="#3F3D56"/>
<path id="Vector_12" d="M254.898 73.5981C251.724 75.0348 248.229 75.377 244.874 74.5795C241.519 73.782 238.463 71.8823 236.111 69.1316C237.582 68.8938 249.13 67.2603 254.898 73.5981Z" fill="#F8FF63"/>
<path id="Vector_13" d="M262.489 45.9887V45.9893C250.422 36.1836 236.597 43.0853 236.49 43.1383V43.1378C238.057 41.4157 239.918 40.0504 241.966 39.1198C244.014 38.1893 246.209 37.712 248.425 37.7151C254.291 37.7151 259.459 41.0007 262.489 45.9887Z" fill="#E6E6E6"/>
<path id="Vector_14" d="M237.427 56.7236C239.471 56.3177 240.519 52.2649 239.767 47.6713C239.015 43.0777 236.747 39.6829 234.702 40.0888C232.658 40.4947 231.61 44.5476 232.362 49.1412C233.114 53.7348 235.382 57.1296 237.427 56.7236Z" fill="#3F3D56"/>
<path id="Vector_15" d="M237.914 62.1246C237.795 52.0051 234.801 42.5086 234.771 42.414L234.498 42.5253C234.528 42.6196 237.506 52.0663 237.623 62.129L237.914 62.1246Z" fill="#F8FF63"/>
<path id="Vector_16" d="M232.512 47.2648L232.421 47.5763L236.091 48.8833L236.183 48.5719L232.512 47.2648Z" fill="#F8FF63"/>
<path id="Vector_17" d="M239.417 46.9139L236.393 49.5512L236.577 49.8078L239.602 47.1705L239.417 46.9139Z" fill="#F8FF63"/>
<path id="Vector_18" d="M247.26 55.2849C249.487 55.2849 251.293 51.1917 251.293 46.1425C251.293 41.0932 249.487 37 247.26 37C245.033 37 243.227 41.0932 243.227 46.1425C243.227 51.1917 245.033 55.2849 247.26 55.2849Z" fill="#3F3D56"/>
<path id="Vector_19" d="M246.865 61.1075C248.493 50.3137 246.881 39.5589 246.865 39.4516L246.548 39.5109C246.565 39.6176 248.167 50.316 246.548 61.0493L246.865 61.1075Z" fill="#F8FF63"/>
<path id="Vector_20" d="M243.675 44.1572L243.523 44.4695L247.204 46.6374L247.356 46.3251L243.675 44.1572Z" fill="#F8FF63"/>
<path id="Vector_21" d="M251.09 45.2431L247.409 47.4123L247.561 47.7246L251.241 45.5555L251.09 45.2431Z" fill="#F8FF63"/>
<path id="Vector_22" d="M264.956 52.2895C263.461 51.3767 261.898 50.6 260.284 49.9674C251.362 46.4577 242.515 47.8104 239.052 52.8333C241.747 46.6798 251.363 44.7449 261.067 48.5622C262.197 49.0061 263.302 49.5194 264.378 50.0997C264.612 50.8159 264.806 51.5472 264.956 52.2895V52.2895Z" fill="#E6E6E6"/>
</g>
<path id="sub" d="M126.903 65H126.543V60.806H126.903C126.903 61.934 127.305 62.894 128.109 63.686C128.925 64.478 129.915 64.874 131.079 64.874C131.559 64.874 131.943 64.736 132.231 64.46C132.531 64.172 132.681 63.794 132.681 63.326C132.681 62.798 132.339 62.348 131.655 61.976C131.283 61.784 130.641 61.484 129.729 61.076C128.817 60.656 128.175 60.302 127.803 60.014C127.059 59.438 126.729 58.676 126.813 57.728C126.909 56.78 127.269 56.048 127.893 55.532C128.517 55.004 129.219 54.74 129.999 54.74C130.791 54.74 131.499 54.848 132.123 55.064C132.759 55.268 133.119 55.37 133.203 55.37C133.443 55.37 133.563 55.16 133.563 54.74H133.923V58.034H133.563C133.563 57.17 133.245 56.468 132.609 55.928C131.973 55.376 131.157 55.1 130.161 55.1C129.717 55.1 129.369 55.232 129.117 55.496C128.865 55.748 128.739 56.03 128.739 56.342C128.739 56.654 128.781 56.894 128.865 57.062C128.949 57.23 129.093 57.386 129.297 57.53C129.513 57.662 129.699 57.77 129.855 57.854C130.011 57.938 130.257 58.052 130.593 58.196C130.941 58.34 131.181 58.442 131.313 58.502C131.973 58.802 132.363 58.982 132.483 59.042C132.603 59.09 132.777 59.174 133.005 59.294C133.233 59.414 133.401 59.522 133.509 59.618C133.629 59.714 133.779 59.834 133.959 59.978C134.139 60.122 134.271 60.272 134.355 60.428C134.439 60.572 134.523 60.74 134.607 60.932C134.775 61.316 134.835 61.766 134.787 62.282C134.691 63.254 134.325 63.998 133.689 64.514C133.065 65.018 132.219 65.27 131.151 65.27C130.191 65.27 129.237 65.024 128.289 64.532C127.965 64.364 127.725 64.28 127.569 64.28C127.125 64.28 126.903 64.52 126.903 65ZM142.43 65V64.046C142.202 64.37 141.842 64.646 141.35 64.874C140.87 65.09 140.348 65.198 139.784 65.198C137.648 65.198 136.58 64.04 136.58 61.724V57.08H135.68V56.72H139.28V62.12C139.28 62.972 139.406 63.578 139.658 63.938C139.91 64.298 140.288 64.478 140.792 64.478C141.464 64.478 142.01 64.118 142.43 63.398V57.08H141.53V56.72H145.13V64.64H146.03V65H142.43ZM150.354 62.192C150.354 63.104 150.456 63.764 150.66 64.172C150.864 64.568 151.188 64.766 151.632 64.766C152.088 64.766 152.49 64.43 152.838 63.758C153.186 63.074 153.36 62.12 153.36 60.896C153.36 59.66 153.174 58.712 152.802 58.052C152.442 57.392 152.016 57.062 151.524 57.062C151.032 57.062 150.642 57.344 150.354 57.908V62.192ZM154.584 64.37C154.14 64.658 153.708 64.862 153.288 64.982C152.868 65.102 152.454 65.162 152.046 65.162C151.65 65.162 151.284 65.09 150.948 64.946C150.612 64.79 150.342 64.628 150.138 64.46C149.946 64.28 149.73 64.118 149.49 63.974C149.25 63.818 149.022 63.74 148.806 63.74C148.59 63.74 148.398 63.86 148.23 64.1C148.074 64.34 147.996 64.64 147.996 65H147.654V53.3H146.754V52.94H150.354V57.368C150.546 57.044 150.858 56.792 151.29 56.612C151.734 56.42 152.196 56.324 152.676 56.324C153.588 56.324 154.38 56.726 155.052 57.53C155.736 58.322 156.078 59.432 156.078 60.86C156.078 61.7 155.94 62.42 155.664 63.02C155.388 63.62 155.028 64.07 154.584 64.37ZM157.331 61.436V60.068H160.409V61.436H157.331ZM165.251 65.216C164.279 65.216 163.439 64.832 162.731 64.064C162.023 63.296 161.669 62.21 161.669 60.806C161.669 59.402 162.017 58.304 162.713 57.512C163.409 56.72 164.255 56.324 165.251 56.324C165.743 56.324 166.205 56.426 166.637 56.63C167.069 56.834 167.381 57.14 167.573 57.548V53.3H166.673V52.94H170.273V64.64H171.173V65H167.573V64.172C167.249 64.868 166.475 65.216 165.251 65.216ZM167.573 61.058V58.088C167.249 57.44 166.823 57.116 166.295 57.116C165.779 57.116 165.335 57.416 164.963 58.016C164.591 58.616 164.405 59.57 164.405 60.878C164.405 62.174 164.597 63.122 164.981 63.722C165.365 64.322 165.827 64.58 166.367 64.496C166.667 64.448 166.895 64.352 167.051 64.208C167.399 63.872 167.573 62.822 167.573 61.058ZM176.031 64.64H176.931V65H172.431V64.64H173.331V57.08H172.611V56.72H176.031V64.64ZM176.193 54.344C176.193 54.776 176.037 55.148 175.725 55.46C175.425 55.76 175.053 55.91 174.609 55.91C174.177 55.91 173.805 55.76 173.493 55.46C173.181 55.148 173.025 54.776 173.025 54.344C173.025 53.9 173.181 53.522 173.493 53.21C173.805 52.898 174.177 52.742 174.609 52.742C175.053 52.742 175.425 52.898 175.725 53.21C176.037 53.522 176.193 53.9 176.193 54.344ZM182.247 64.856C183.495 64.856 184.119 64.514 184.119 63.83C184.119 63.446 183.903 63.134 183.471 62.894C183.039 62.642 182.517 62.438 181.905 62.282C181.293 62.126 180.687 61.946 180.087 61.742C179.499 61.538 179.007 61.214 178.611 60.77C178.227 60.326 178.071 59.744 178.143 59.024C178.215 58.304 178.581 57.71 179.241 57.242C179.913 56.774 180.735 56.54 181.707 56.54C182.691 56.54 183.483 56.696 184.083 57.008C184.683 57.32 185.019 57.74 185.091 58.268C185.139 58.592 185.085 58.892 184.929 59.168C184.785 59.444 184.539 59.588 184.191 59.6C183.855 59.612 183.573 59.522 183.345 59.33C183.129 59.138 183.027 58.916 183.039 58.664C183.051 58.412 183.147 58.19 183.327 57.998C183.507 57.794 183.597 57.632 183.597 57.512C183.597 57.308 183.399 57.158 183.003 57.062C182.619 56.954 182.169 56.9 181.653 56.9C181.149 56.9 180.735 57.014 180.411 57.242C180.087 57.47 179.925 57.752 179.925 58.088C179.925 58.424 180.123 58.712 180.519 58.952C180.927 59.192 181.419 59.39 181.995 59.546C182.571 59.69 183.141 59.858 183.705 60.05C184.281 60.23 184.767 60.524 185.163 60.932C185.571 61.34 185.775 61.856 185.775 62.48C185.775 63.308 185.481 63.974 184.893 64.478C184.305 64.97 183.417 65.216 182.229 65.216C181.041 65.216 180.075 65.036 179.331 64.676C178.599 64.316 178.197 63.854 178.125 63.29C178.077 62.966 178.131 62.666 178.287 62.39C178.443 62.114 178.689 61.97 179.025 61.958C179.361 61.946 179.637 62.036 179.853 62.228C180.081 62.42 180.189 62.642 180.177 62.894C180.165 63.146 180.069 63.374 179.889 63.578C179.709 63.77 179.619 63.926 179.619 64.046C179.619 64.286 179.895 64.484 180.447 64.64C181.011 64.784 181.611 64.856 182.247 64.856ZM186.56 60.86C186.56 59.444 186.974 58.37 187.802 57.638C188.63 56.906 189.68 56.54 190.952 56.54C192.236 56.54 193.19 56.864 193.814 57.512C194.438 58.148 194.66 58.808 194.48 59.492C194.384 59.864 194.18 60.14 193.868 60.32C193.568 60.488 193.238 60.53 192.878 60.446C192.122 60.266 191.744 59.828 191.744 59.132C191.744 58.952 191.762 58.682 191.798 58.322C191.846 57.95 191.864 57.68 191.852 57.512C191.84 57.344 191.804 57.212 191.744 57.116C191.624 56.912 191.342 56.834 190.898 56.882C189.818 57.05 189.278 58.376 189.278 60.86C189.278 63.332 190.16 64.568 191.924 64.568C192.332 64.568 192.746 64.46 193.166 64.244C193.586 64.028 193.898 63.77 194.102 63.47L194.354 63.65C194.078 64.106 193.664 64.472 193.112 64.748C192.56 65.024 191.942 65.162 191.258 65.162C188.126 65.162 186.56 63.728 186.56 60.86ZM198.762 63.92C199.026 64.52 199.482 64.82 200.13 64.82C200.778 64.82 201.24 64.514 201.516 63.902C201.792 63.29 201.93 62.282 201.93 60.878C201.93 59.462 201.792 58.448 201.516 57.836C201.24 57.212 200.778 56.9 200.13 56.9C199.482 56.9 199.026 57.212 198.762 57.836C198.498 58.448 198.366 59.462 198.366 60.878C198.366 62.294 198.498 63.308 198.762 63.92ZM200.094 65.18C198.954 65.18 197.922 64.808 196.998 64.064C196.074 63.32 195.612 62.264 195.612 60.896C195.612 60.164 195.744 59.51 196.008 58.934C196.284 58.358 196.644 57.902 197.088 57.566C197.544 57.23 198.03 56.978 198.546 56.81C199.062 56.63 199.59 56.54 200.13 56.54C200.67 56.54 201.198 56.63 201.714 56.81C202.242 56.978 202.728 57.23 203.172 57.566C203.628 57.902 203.994 58.358 204.27 58.934C204.546 59.51 204.684 60.158 204.684 60.878C204.684 61.598 204.546 62.24 204.27 62.804C203.994 63.368 203.628 63.818 203.172 64.154C202.26 64.838 201.234 65.18 200.094 65.18ZM221.072 64.64H221.972V65H217.472V64.64H218.372V59.6C218.372 58.748 218.246 58.142 217.994 57.782C217.742 57.422 217.364 57.242 216.86 57.242C216.572 57.242 216.272 57.326 215.96 57.494C215.648 57.662 215.39 57.896 215.186 58.196C215.33 58.628 215.402 59.228 215.402 59.996V64.64H216.302V65H211.622V64.64H212.702V59.6C212.702 58.748 212.576 58.142 212.324 57.782C212.072 57.422 211.694 57.242 211.19 57.242C210.506 57.242 209.96 57.602 209.552 58.322V64.64H210.452V65H205.952V64.64H206.852V57.08H205.952V56.72H209.552V57.656C209.78 57.344 210.134 57.08 210.614 56.864C211.106 56.636 211.634 56.522 212.198 56.522C213.626 56.522 214.556 56.924 214.988 57.728C215.3 57.344 215.714 57.05 216.23 56.846C216.746 56.63 217.292 56.522 217.868 56.522C220.004 56.522 221.072 57.68 221.072 59.996V64.64ZM226.292 62.192C226.292 63.104 226.394 63.764 226.598 64.172C226.802 64.568 227.126 64.766 227.57 64.766C228.026 64.766 228.428 64.43 228.776 63.758C229.124 63.074 229.298 62.12 229.298 60.896C229.298 59.66 229.112 58.712 228.74 58.052C228.38 57.392 227.954 57.062 227.462 57.062C226.97 57.062 226.58 57.344 226.292 57.908V62.192ZM230.522 64.37C230.078 64.658 229.646 64.862 229.226 64.982C228.806 65.102 228.392 65.162 227.984 65.162C227.588 65.162 227.222 65.09 226.886 64.946C226.55 64.79 226.28 64.628 226.076 64.46C225.884 64.28 225.668 64.118 225.428 63.974C225.188 63.818 224.96 63.74 224.744 63.74C224.528 63.74 224.336 63.86 224.168 64.1C224.012 64.34 223.934 64.64 223.934 65H223.592V53.3H222.692V52.94H226.292V57.368C226.484 57.044 226.796 56.792 227.228 56.612C227.672 56.42 228.134 56.324 228.614 56.324C229.526 56.324 230.318 56.726 230.99 57.53C231.674 58.322 232.016 59.432 232.016 60.86C232.016 61.7 231.878 62.42 231.602 63.02C231.326 63.62 230.966 64.07 230.522 64.37ZM271.134 62.192C271.134 63.104 271.236 63.764 271.44 64.172C271.644 64.568 271.968 64.766 272.412 64.766C272.868 64.766 273.27 64.43 273.618 63.758C273.966 63.074 274.14 62.12 274.14 60.896C274.14 59.66 273.954 58.712 273.582 58.052C273.222 57.392 272.796 57.062 272.304 57.062C271.812 57.062 271.422 57.344 271.134 57.908V62.192ZM275.364 64.37C274.92 64.658 274.488 64.862 274.068 64.982C273.648 65.102 273.234 65.162 272.826 65.162C272.43 65.162 272.064 65.09 271.728 64.946C271.392 64.79 271.122 64.628 270.918 64.46C270.726 64.28 270.51 64.118 270.27 63.974C270.03 63.818 269.802 63.74 269.586 63.74C269.37 63.74 269.178 63.86 269.01 64.1C268.854 64.34 268.776 64.64 268.776 65H268.434V53.3H267.534V52.94H271.134V57.368C271.326 57.044 271.638 56.792 272.07 56.612C272.514 56.42 272.976 56.324 273.456 56.324C274.368 56.324 275.16 56.726 275.832 57.53C276.516 58.322 276.858 59.432 276.858 60.86C276.858 61.7 276.72 62.42 276.444 63.02C276.168 63.62 275.808 64.07 275.364 64.37ZM284.321 65V64.046C284.093 64.37 283.733 64.646 283.241 64.874C282.761 65.09 282.239 65.198 281.675 65.198C279.539 65.198 278.471 64.04 278.471 61.724V57.08H277.571V56.72H281.171V62.12C281.171 62.972 281.297 63.578 281.549 63.938C281.801 64.298 282.179 64.478 282.683 64.478C283.355 64.478 283.901 64.118 284.321 63.398V57.08H283.421V56.72H287.021V64.64H287.921V65H284.321ZM292.785 64.64H293.685V65H289.185V64.64H290.085V53.3H289.185V52.94H292.785V64.64ZM303.68 64.64C303.56 64.76 303.332 64.868 302.996 64.964C302.66 65.048 302.27 65.09 301.826 65.09C300.842 65.09 300.224 64.796 299.972 64.208C299.372 64.832 298.454 65.144 297.218 65.144C296.558 65.144 296.012 64.994 295.58 64.694C295.16 64.382 294.95 63.926 294.95 63.326C294.95 62.522 295.262 61.904 295.886 61.472C296.51 61.028 297.602 60.716 299.162 60.536L299.882 60.446V59.564C299.882 58.52 299.804 57.818 299.648 57.458C299.492 57.098 299.18 56.918 298.712 56.918C298.256 56.918 297.962 56.984 297.83 57.116C297.698 57.236 297.65 57.38 297.686 57.548C297.722 57.704 297.782 57.914 297.866 58.178C297.95 58.442 297.992 58.652 297.992 58.808C297.992 59.18 297.86 59.498 297.596 59.762C297.344 60.014 297.032 60.14 296.66 60.14C296.3 60.14 295.988 60.014 295.724 59.762C295.46 59.498 295.328 59.18 295.328 58.808C295.328 58.196 295.64 57.674 296.264 57.242C296.9 56.798 297.842 56.576 299.09 56.576C300.35 56.576 301.244 56.822 301.772 57.314C302.312 57.806 302.582 58.676 302.582 59.924V63.164C302.582 63.8 302.66 64.202 302.816 64.37C302.972 64.526 303.26 64.556 303.68 64.46V64.64ZM297.452 62.966C297.512 63.422 297.68 63.776 297.956 64.028C298.232 64.268 298.55 64.388 298.91 64.388C299.282 64.388 299.606 64.208 299.882 63.848V60.788L299.234 60.878C298.682 60.95 298.232 61.16 297.884 61.508C297.548 61.856 297.404 62.342 297.452 62.966ZM308.071 57.08V61.472C308.071 62.504 308.113 63.134 308.197 63.362C308.281 63.578 308.371 63.764 308.467 63.92C308.647 64.232 308.959 64.388 309.403 64.388C309.859 64.388 310.177 64.328 310.357 64.208V64.568C309.781 64.976 309.151 65.18 308.467 65.18C307.459 65.18 306.691 64.94 306.163 64.46C305.635 63.98 305.371 63.122 305.371 61.886V57.08H304.039V56.72H305.371C305.947 56.624 306.457 56.348 306.901 55.892C307.345 55.424 307.651 54.782 307.819 53.966H308.071V56.72H310.159V57.08H308.071ZM314.233 63.92C314.497 64.52 314.953 64.82 315.601 64.82C316.249 64.82 316.711 64.514 316.987 63.902C317.263 63.29 317.401 62.282 317.401 60.878C317.401 59.462 317.263 58.448 316.987 57.836C316.711 57.212 316.249 56.9 315.601 56.9C314.953 56.9 314.497 57.212 314.233 57.836C313.969 58.448 313.837 59.462 313.837 60.878C313.837 62.294 313.969 63.308 314.233 63.92ZM315.565 65.18C314.425 65.18 313.393 64.808 312.469 64.064C311.545 63.32 311.083 62.264 311.083 60.896C311.083 60.164 311.215 59.51 311.479 58.934C311.755 58.358 312.115 57.902 312.559 57.566C313.015 57.23 313.501 56.978 314.017 56.81C314.533 56.63 315.061 56.54 315.601 56.54C316.141 56.54 316.669 56.63 317.185 56.81C317.713 56.978 318.199 57.23 318.643 57.566C319.099 57.902 319.465 58.358 319.741 58.934C320.017 59.51 320.155 60.158 320.155 60.878C320.155 61.598 320.017 62.24 319.741 62.804C319.465 63.368 319.099 63.818 318.643 64.154C317.731 64.838 316.705 65.18 315.565 65.18ZM325.923 65H321.423V64.64H322.323V57.08H321.423V56.72H325.023V58.862C325.131 58.274 325.323 57.794 325.599 57.422C325.887 57.05 326.199 56.804 326.535 56.684C326.883 56.564 327.213 56.504 327.525 56.504C327.849 56.504 328.155 56.564 328.443 56.684C328.743 56.792 328.965 57.02 329.109 57.368C329.253 57.704 329.259 58.046 329.127 58.394C328.995 58.73 328.761 58.97 328.425 59.114C328.101 59.258 327.801 59.276 327.525 59.168C327.249 59.06 327.051 58.916 326.931 58.736C326.811 58.544 326.727 58.364 326.679 58.196C326.559 57.752 326.397 57.53 326.193 57.53C325.965 57.53 325.713 57.926 325.437 58.718C325.161 59.498 325.023 60.326 325.023 61.202V64.64H325.923V65Z" fill="white"/>
<path id="atomique" d="M132.256 44.76V45H129.1V44.76H129.808L129.004 43.092H126.58L125.884 44.76H126.832V45H124.78V44.76H125.584L128.332 38.16H128.632L131.68 44.76H132.256ZM126.688 42.84H128.884L127.708 40.392L126.688 42.84ZM135.059 39.72V42.648C135.059 43.336 135.087 43.756 135.143 43.908C135.199 44.052 135.259 44.176 135.323 44.28C135.443 44.488 135.651 44.592 135.947 44.592C136.251 44.592 136.463 44.552 136.583 44.472V44.712C136.199 44.984 135.779 45.12 135.323 45.12C134.651 45.12 134.139 44.96 133.787 44.64C133.435 44.32 133.259 43.748 133.259 42.924V39.72H132.371V39.48H133.259C133.643 39.416 133.983 39.232 134.279 38.928C134.575 38.616 134.779 38.188 134.891 37.644H135.059V39.48H136.451V39.72H135.059ZM139.167 44.28C139.343 44.68 139.647 44.88 140.079 44.88C140.511 44.88 140.819 44.676 141.003 44.268C141.187 43.86 141.279 43.188 141.279 42.252C141.279 41.308 141.187 40.632 141.003 40.224C140.819 39.808 140.511 39.6 140.079 39.6C139.647 39.6 139.343 39.808 139.167 40.224C138.991 40.632 138.903 41.308 138.903 42.252C138.903 43.196 138.991 43.872 139.167 44.28ZM140.055 45.12C139.295 45.12 138.607 44.872 137.991 44.376C137.375 43.88 137.067 43.176 137.067 42.264C137.067 41.776 137.155 41.34 137.331 40.956C137.515 40.572 137.755 40.268 138.051 40.044C138.355 39.82 138.679 39.652 139.023 39.54C139.367 39.42 139.719 39.36 140.079 39.36C140.439 39.36 140.791 39.42 141.135 39.54C141.487 39.652 141.811 39.82 142.107 40.044C142.411 40.268 142.655 40.572 142.839 40.956C143.023 41.34 143.115 41.772 143.115 42.252C143.115 42.732 143.023 43.16 142.839 43.536C142.655 43.912 142.411 44.212 142.107 44.436C141.499 44.892 140.815 45.12 140.055 45.12ZM154.04 44.76H154.64V45H151.64V44.76H152.24V41.4C152.24 40.832 152.156 40.428 151.988 40.188C151.82 39.948 151.568 39.828 151.232 39.828C151.04 39.828 150.84 39.884 150.632 39.996C150.424 40.108 150.252 40.264 150.116 40.464C150.212 40.752 150.26 41.152 150.26 41.664V44.76H150.86V45H147.74V44.76H148.46V41.4C148.46 40.832 148.376 40.428 148.208 40.188C148.04 39.948 147.788 39.828 147.452 39.828C146.996 39.828 146.632 40.068 146.36 40.548V44.76H146.96V45H143.96V44.76H144.56V39.72H143.96V39.48H146.36V40.104C146.512 39.896 146.748 39.72 147.068 39.576C147.396 39.424 147.748 39.348 148.124 39.348C149.076 39.348 149.696 39.616 149.984 40.152C150.192 39.896 150.468 39.7 150.812 39.564C151.156 39.42 151.52 39.348 151.904 39.348C153.328 39.348 154.04 40.12 154.04 41.664V44.76ZM157.88 44.76H158.48V45H155.48V44.76H156.08V39.72H155.6V39.48H157.88V44.76ZM157.988 37.896C157.988 38.184 157.884 38.432 157.676 38.64C157.476 38.84 157.228 38.94 156.932 38.94C156.644 38.94 156.396 38.84 156.188 38.64C155.98 38.432 155.876 38.184 155.876 37.896C155.876 37.6 155.98 37.348 156.188 37.14C156.396 36.932 156.644 36.828 156.932 36.828C157.228 36.828 157.476 36.932 157.676 37.14C157.884 37.348 157.988 37.6 157.988 37.896ZM163.14 39.48H165.54V39.72H164.94V47.28H165.54V47.52H162.54V47.28H163.14V44.448C163.012 44.72 162.804 44.924 162.516 45.06C162.228 45.196 161.92 45.264 161.592 45.264C160.928 45.264 160.364 45 159.9 44.472C159.436 43.944 159.204 43.212 159.204 42.276C159.204 41.34 159.44 40.616 159.912 40.104C160.384 39.592 160.972 39.336 161.676 39.336C162.38 39.336 162.868 39.568 163.14 40.032V39.48ZM163.14 42.108C163.14 41.22 163.08 40.616 162.96 40.296C162.84 39.976 162.584 39.816 162.192 39.816C161.8 39.816 161.508 39.996 161.316 40.356C161.124 40.708 161.028 41.328 161.028 42.216C161.028 43.096 161.152 43.736 161.4 44.136C161.648 44.536 161.944 44.736 162.288 44.736C162.64 44.736 162.924 44.52 163.14 44.088V42.108ZM170.401 45V44.364C170.249 44.58 170.009 44.764 169.681 44.916C169.361 45.06 169.013 45.132 168.637 45.132C167.213 45.132 166.501 44.36 166.501 42.816V39.72H165.901V39.48H168.301V43.08C168.301 43.648 168.385 44.052 168.553 44.292C168.721 44.532 168.973 44.652 169.309 44.652C169.757 44.652 170.121 44.412 170.401 43.932V39.72H169.801V39.48H172.201V44.76H172.801V45H170.401ZM178.948 42.6H175.324C175.404 44.008 175.952 44.712 176.968 44.712C177.24 44.712 177.548 44.648 177.892 44.52C178.244 44.392 178.5 44.212 178.66 43.98L178.828 44.1C178.652 44.396 178.352 44.64 177.928 44.832C177.504 45.024 177.08 45.12 176.656 45.12C176.24 45.12 175.864 45.08 175.528 45C175.192 44.912 174.864 44.768 174.544 44.568C174.224 44.368 173.972 44.068 173.788 43.668C173.612 43.268 173.524 42.784 173.524 42.216C173.524 41.248 173.792 40.532 174.328 40.068C174.864 39.596 175.512 39.36 176.272 39.36C177.04 39.36 177.676 39.616 178.18 40.128C178.692 40.64 178.948 41.464 178.948 42.6ZM175.312 42.36H177.268C177.268 41.624 177.188 40.98 177.028 40.428C176.876 39.876 176.628 39.6 176.284 39.6C175.94 39.6 175.692 39.868 175.54 40.404C175.388 40.932 175.312 41.54 175.312 42.228V42.36Z" fill="white"/>
</g>
</svg>
